<svg width="166" height="188" viewBox="0 0 166 188" fill="none" xmlns="http://www.w3.org/2000/svg">
<g filter="url(#filter0_d_32_12)">
<ellipse cx="81" cy="90" rx="81" ry="90" fill="white"/>
<path d="M81.0682 60.4011C74.3045 99.0963 40.2045 98.6631 24 93.6096V64.7326L117 114.545L97.1847 60.4011M97.1847 60.4011L81.0682 16.3636L62.0455 60.4011H97.1847Z" stroke="black"/>
<path d="M48.9462 123.508L43.0422 110.5L42.3462 121.156C42.3302 121.556 42.4342 121.86 42.6582 122.068C42.8822 122.26 43.2102 122.396 43.6422 122.476L45.3942 122.836V123.364H38.7942V122.836L40.1862 122.524C40.4742 122.46 40.7062 122.38 40.8822 122.284C41.0742 122.172 41.2182 122.028 41.3142 121.852C41.4102 121.676 41.4662 121.444 41.4822 121.156L42.2022 109.42C42.2342 108.908 42.1622 108.572 41.9862 108.412C41.8262 108.252 41.4662 108.116 40.9062 108.004L39.6822 107.74V107.212L45.3222 107.236L50.3862 118.348L54.8742 107.212H60.6822V107.74L59.4582 108.004C58.9142 108.116 58.5542 108.252 58.3782 108.412C58.2182 108.572 58.1462 108.908 58.1622 109.42L58.6422 121.156C58.6582 121.492 58.6982 121.748 58.7622 121.924C58.8262 122.1 58.9462 122.236 59.1222 122.332C59.2982 122.412 59.5702 122.492 59.9382 122.572L61.1622 122.836V123.364H52.7622V122.836L53.9862 122.572C54.5462 122.444 54.9062 122.3 55.0662 122.14C55.2422 121.98 55.3142 121.652 55.2822 121.156L54.7542 109.948L49.3062 123.508H48.9462ZM66.9987 123.556C65.9107 123.556 65.0627 123.268 64.4547 122.692C63.8467 122.116 63.5427 121.292 63.5427 120.22V114.532C63.5427 114.196 63.4867 113.972 63.3747 113.86C63.2627 113.732 63.1027 113.644 62.8947 113.596L62.1267 113.404V112.972C62.7667 112.924 63.3107 112.876 63.7587 112.828C64.2227 112.78 64.6547 112.716 65.0547 112.636C65.4707 112.556 65.9347 112.46 66.4467 112.348L66.6867 112.54C66.5747 112.716 66.4867 112.988 66.4227 113.356C66.3747 113.724 66.3507 114.124 66.3507 114.556V119.332C66.3507 120.036 66.5187 120.58 66.8547 120.964C67.2067 121.348 67.7027 121.54 68.3427 121.54C68.9987 121.54 69.5027 121.34 69.8547 120.94C70.2067 120.524 70.3827 119.988 70.3827 119.332L70.7427 121.852H70.4067C69.9107 122.06 69.3907 122.308 68.8467 122.596C68.3187 122.884 67.8227 123.164 67.3587 123.436C67.2307 123.516 67.1107 123.556 66.9987 123.556ZM71.0787 123.556L70.8387 123.436L70.5507 121.492L70.3827 120.724V114.532C70.3827 114.196 70.3267 113.972 70.2147 113.86C70.1027 113.732 69.9427 113.644 69.7347 113.596L68.9667 113.404V112.972C69.6067 112.924 70.1507 112.876 70.5987 112.828C71.0627 112.78 71.4947 112.716 71.8947 112.636C72.3107 112.556 72.7747 112.46 73.2867 112.348L73.5267 112.54C73.4147 112.716 73.3267 112.988 73.2627 113.356C73.2147 113.724 73.1907 114.124 73.1907 114.556V121.06C73.1907 121.588 73.3267 121.964 73.5987 122.188C73.8707 122.412 74.3267 122.524 74.9667 122.524V123.148C74.2787 123.164 73.6307 123.22 73.0227 123.316C72.4307 123.396 71.7827 123.476 71.0787 123.556ZM80.5634 123.556C79.7794 123.556 79.0434 123.444 78.3554 123.22C77.6674 122.98 77.1394 122.756 76.7714 122.548C76.8034 122.084 76.8194 121.556 76.8194 120.964C76.8354 120.372 76.7794 119.828 76.6514 119.332H77.5634C77.6594 119.956 77.8434 120.532 78.1154 121.06C78.4034 121.588 78.7634 122.012 79.1954 122.332C79.6434 122.652 80.1474 122.812 80.7074 122.812C81.1874 122.812 81.5714 122.676 81.8594 122.404C82.1634 122.132 82.3154 121.756 82.3154 121.276C82.3154 120.892 82.2434 120.58 82.0994 120.34C81.9554 120.084 81.6914 119.852 81.3074 119.644C80.9394 119.42 80.4034 119.172 79.6994 118.9C78.7394 118.532 78.0434 118.092 77.6114 117.58C77.1794 117.052 76.9634 116.356 76.9634 115.492C76.9634 114.964 77.1234 114.476 77.4434 114.028C77.7794 113.58 78.2354 113.22 78.8114 112.948C79.4034 112.66 80.0914 112.516 80.8754 112.516C81.4034 112.516 81.8354 112.564 82.1714 112.66C82.5074 112.756 82.8594 112.884 83.2274 113.044H83.8514C83.7874 113.636 83.7714 114.148 83.8034 114.58C83.8514 115.012 83.9234 115.484 84.0194 115.996H83.2994C83.0594 115.1 82.7154 114.42 82.2674 113.956C81.8194 113.476 81.2674 113.236 80.6114 113.236C80.1794 113.236 79.8274 113.364 79.5554 113.62C79.2994 113.86 79.1714 114.18 79.1714 114.58C79.1714 114.964 79.2514 115.276 79.4114 115.516C79.5714 115.756 79.8354 115.964 80.2034 116.14C80.5714 116.316 81.0594 116.508 81.6674 116.716C82.5314 117.02 83.2354 117.428 83.7794 117.94C84.3234 118.436 84.5954 119.196 84.5954 120.22C84.5954 120.764 84.4514 121.292 84.1634 121.804C83.8754 122.316 83.4274 122.74 82.8194 123.076C82.2274 123.396 81.4754 123.556 80.5634 123.556ZM86.2786 123.364V122.956L87.0466 122.668C87.4786 122.492 87.6946 122.172 87.6946 121.708V114.844C87.6946 114.508 87.6386 114.284 87.5266 114.172C87.4146 114.06 87.2546 113.98 87.0466 113.932L86.2786 113.74V113.308C87.1906 113.18 87.9666 113.06 88.6066 112.948C89.2466 112.836 89.9106 112.652 90.5986 112.396L90.8386 112.588C90.7266 112.764 90.6386 113.036 90.5746 113.404C90.5266 113.772 90.5026 114.172 90.5026 114.604V121.876C90.5026 122.1 90.5746 122.276 90.7186 122.404C90.8786 122.532 91.0226 122.62 91.1506 122.668L91.9186 122.956V123.364H86.2786ZM89.0626 110.284C88.5666 110.284 88.1426 110.116 87.7906 109.78C87.4546 109.428 87.2866 109.004 87.2866 108.508C87.2866 108.012 87.4546 107.596 87.7906 107.26C88.1426 106.908 88.5666 106.732 89.0626 106.732C89.5586 106.732 89.9746 106.908 90.3106 107.26C90.6626 107.596 90.8386 108.012 90.8386 108.508C90.8386 109.004 90.6626 109.428 90.3106 109.78C89.9746 110.116 89.5586 110.284 89.0626 110.284ZM97.9308 123.556C96.9068 123.556 95.9948 123.316 95.1948 122.836C94.4108 122.356 93.7868 121.708 93.3228 120.892C92.8748 120.076 92.6508 119.172 92.6508 118.18C92.6508 117.06 92.8908 116.076 93.3708 115.228C93.8668 114.38 94.5308 113.716 95.3628 113.236C96.2108 112.756 97.1628 112.516 98.2188 112.516C99.4668 112.516 100.451 112.788 101.171 113.332C101.891 113.876 102.251 114.58 102.251 115.444C102.251 115.956 102.115 116.332 101.843 116.572C101.587 116.812 101.275 116.932 100.907 116.932C100.491 116.932 100.147 116.82 99.8748 116.596C99.6188 116.356 99.4908 116.036 99.4908 115.636C99.4908 115.38 99.5548 115.124 99.6828 114.868C99.7148 114.788 99.7468 114.708 99.7788 114.628C99.8268 114.532 99.8508 114.428 99.8508 114.316C99.8508 113.996 99.6988 113.748 99.3948 113.572C99.0908 113.38 98.7068 113.284 98.2428 113.284C97.7628 113.284 97.3308 113.468 96.9468 113.836C96.5628 114.188 96.2588 114.692 96.0348 115.348C95.8268 116.004 95.7228 116.764 95.7228 117.628C95.7228 118.988 96.0668 120.028 96.7548 120.748C97.4428 121.452 98.2588 121.804 99.2028 121.804C100.147 121.804 101.091 121.404 102.035 120.604L102.443 120.988C101.803 121.868 101.107 122.516 100.355 122.932C99.6028 123.348 98.7948 123.556 97.9308 123.556ZM38.1263 153.364V152.836L39.3503 152.572C39.9103 152.444 40.2623 152.3 40.4062 152.14C40.5663 151.98 40.6463 151.652 40.6463 151.156V139.42C40.6463 139.084 40.6143 138.828 40.5503 138.652C40.4863 138.476 40.3583 138.348 40.1663 138.268C39.9903 138.172 39.7183 138.084 39.3503 138.004L38.1263 137.74V137.212H45.6143C47.0863 137.212 48.3423 137.42 49.3823 137.836C50.4223 138.252 51.2143 138.836 51.7583 139.588C52.3183 140.324 52.5983 141.18 52.5983 142.156C52.5983 142.94 52.4303 143.628 52.0943 144.22C51.7583 144.812 51.3103 145.308 50.7503 145.708C50.1903 146.092 49.5743 146.388 48.9023 146.596C48.2463 146.804 47.5903 146.924 46.9343 146.956C46.2783 146.988 45.6863 146.932 45.1583 146.788L45.1343 146.62C45.8703 146.572 46.5503 146.404 47.1743 146.116C47.7983 145.828 48.2943 145.372 48.6623 144.748C49.0463 144.108 49.2383 143.268 49.2383 142.228C49.2383 140.708 48.8463 139.628 48.0623 138.988C47.2943 138.332 46.2303 138.004 44.8703 138.004H44.0063V151.156C44.0063 151.652 44.0863 151.988 44.2463 152.164C44.4063 152.34 44.7583 152.476 45.3023 152.572L46.7423 152.836V153.364H38.1263ZM61.0031 153.364V152.956L61.7711 152.668C61.9951 152.588 62.1551 152.468 62.2511 152.308C62.3631 152.132 62.4191 151.932 62.4191 151.708V146.692C62.4191 145.988 62.2351 145.452 61.8671 145.084C61.5151 144.7 60.9951 144.508 60.3071 144.508C59.6191 144.508 59.0831 144.724 58.6991 145.156C58.3311 145.572 58.1471 146.108 58.1471 146.764L57.7871 144.244H58.1231C58.6031 144.02 59.0831 143.78 59.5631 143.524C60.0591 143.252 60.5551 142.972 61.0511 142.684C61.1311 142.636 61.2271 142.604 61.3391 142.588C61.4511 142.556 61.5551 142.54 61.6511 142.54C62.7871 142.54 63.6671 142.828 64.2911 143.404C64.9151 143.964 65.2271 144.788 65.2271 145.876V151.876C65.2271 152.1 65.2991 152.276 65.4431 152.404C65.6031 152.532 65.7471 152.62 65.8751 152.668L66.6431 152.956V153.364H61.0031ZM53.9231 153.364V152.956L54.6911 152.668C54.9151 152.588 55.0751 152.468 55.1711 152.308C55.2831 152.132 55.3391 151.932 55.3391 151.708V138.772C55.3391 138.436 55.2831 138.212 55.1711 138.1C55.0591 137.988 54.8991 137.908 54.6911 137.86L53.9231 137.668V137.236C54.8351 137.108 55.6111 136.988 56.2511 136.876C56.8911 136.764 57.5551 136.58 58.2431 136.324L58.4831 136.516C58.3711 136.692 58.2831 136.964 58.2191 137.332C58.1711 137.7 58.1471 138.1 58.1471 138.532V151.876C58.1471 152.1 58.2191 152.276 58.3631 152.404C58.5231 152.532 58.6671 152.62 58.7951 152.668L59.5631 152.956V153.364H53.9231ZM72.8906 153.556C71.8186 153.556 70.8746 153.316 70.0586 152.836C69.2426 152.356 68.6106 151.708 68.1626 150.892C67.7146 150.076 67.4906 149.156 67.4906 148.132C67.4906 147.028 67.7146 146.06 68.1626 145.228C68.6106 144.38 69.2426 143.724 70.0586 143.26C70.8746 142.78 71.8186 142.54 72.8906 142.54C73.9786 142.54 74.9306 142.78 75.7466 143.26C76.5626 143.724 77.1946 144.364 77.6426 145.18C78.0906 145.996 78.3146 146.916 78.3146 147.94C78.3146 149.028 78.0906 149.996 77.6426 150.844C77.1946 151.692 76.5626 152.356 75.7466 152.836C74.9306 153.316 73.9786 153.556 72.8906 153.556ZM72.9146 152.788C73.6826 152.788 74.2586 152.42 74.6426 151.684C75.0426 150.932 75.2426 149.772 75.2426 148.204C75.2426 146.588 75.0426 145.372 74.6426 144.556C74.2586 143.724 73.6666 143.308 72.8666 143.308C72.1146 143.308 71.5386 143.676 71.1386 144.412C70.7546 145.148 70.5626 146.3 70.5626 147.868C70.5626 149.484 70.7546 150.708 71.1386 151.54C71.5386 152.372 72.1306 152.788 72.9146 152.788ZM86.7141 153.364V152.956L87.4821 152.668C87.7061 152.588 87.8661 152.468 87.9621 152.308C88.0741 152.132 88.1301 151.932 88.1301 151.708V146.692C88.1301 145.988 87.9461 145.452 87.5781 145.084C87.2261 144.7 86.7061 144.508 86.0181 144.508C85.3301 144.508 84.7941 144.724 84.4101 145.156C84.0421 145.572 83.8581 146.108 83.8581 146.764L83.4981 144.244H83.8341C84.3141 144.02 84.7941 143.78 85.2741 143.524C85.7701 143.252 86.2661 142.972 86.7621 142.684C86.9381 142.572 87.1381 142.516 87.3621 142.516C88.4981 142.516 89.3781 142.804 90.0021 143.38C90.6261 143.956 90.9381 144.788 90.9381 145.876V151.876C90.9381 152.1 91.0101 152.276 91.1541 152.404C91.3141 152.532 91.4581 152.62 91.5861 152.668L92.3541 152.956V153.364H86.7141ZM79.6341 153.364V152.956L80.4021 152.668C80.6261 152.588 80.7861 152.468 80.8821 152.308C80.9941 152.132 81.0501 151.932 81.0501 151.708V144.844C81.0501 144.508 80.9941 144.284 80.8821 144.172C80.7701 144.06 80.6101 143.98 80.4021 143.932L79.6341 143.74V143.308C80.2581 143.212 80.7861 143.132 81.2181 143.068C81.6661 142.988 82.0901 142.9 82.4901 142.804C82.8901 142.692 83.3221 142.556 83.7861 142.396L84.0261 142.588C83.9141 142.764 83.8261 143.036 83.7621 143.404C83.7141 143.772 83.6901 144.172 83.6901 144.604V144.844L83.8581 145.372V151.876C83.8581 152.1 83.9301 152.276 84.0741 152.404C84.2341 152.532 84.3781 152.62 84.5061 152.668L85.2741 152.956V153.364H79.6341ZM98.4816 153.556C97.4576 153.556 96.5456 153.316 95.7456 152.836C94.9616 152.356 94.3376 151.708 93.8736 150.892C93.4256 150.076 93.2016 149.172 93.2016 148.18C93.2016 147.06 93.4416 146.076 93.9216 145.228C94.4176 144.38 95.0816 143.716 95.9136 143.236C96.7616 142.756 97.7136 142.516 98.7696 142.516C99.6176 142.516 100.354 142.716 100.978 143.116C101.618 143.5 102.114 144.036 102.466 144.724C102.818 145.396 102.994 146.156 102.994 147.004C102.994 147.164 102.946 147.308 102.85 147.436C102.77 147.548 102.634 147.604 102.442 147.604H94.6656V146.74L99.8736 146.524C100.098 146.524 100.21 146.356 100.21 146.02C100.21 145.172 100.066 144.508 99.7776 144.028C99.4896 143.532 99.1056 143.284 98.6256 143.284C97.8896 143.284 97.3136 143.684 96.8976 144.484C96.4816 145.284 96.2736 146.332 96.2736 147.628C96.2736 148.524 96.4336 149.284 96.7536 149.908C97.0736 150.532 97.4976 151.004 98.0256 151.324C98.5536 151.644 99.1296 151.804 99.7536 151.804C100.698 151.804 101.642 151.404 102.586 150.604L102.994 150.988C102.354 151.868 101.658 152.516 100.906 152.932C100.154 153.348 99.3456 153.556 98.4816 153.556Z" fill="black"/>
</g>
<defs>
<filter id="filter0_d_32_12" x="-4" y="0" width="170" height="188" filterUnits="userSpaceOnUse" color-interpolation-filters="sRGB">
<feFlood flood-opacity="0" result="BackgroundImageFix"/>
<feColorMatrix in="SourceAlpha" type="matrix" values="0 0 0 0 0 0 0 0 0 0 0 0 0 0 0 0 0 0 127 0" result="hardAlpha"/>
<feOffset dy="4"/>
<feGaussianBlur stdDeviation="2"/>
<feComposite in2="hardAlpha" operator="out"/>
<feColorMatrix type="matrix" values="0 0 0 0 0 0 0 0 0 0 0 0 0 0 0 0 0 0 0.25 0"/>
<feBlend mode="normal" in2="BackgroundImageFix" result="effect1_dropShadow_32_12"/>
<feBlend mode="normal" in="SourceGraphic" in2="effect1_dropShadow_32_12" result="shape"/>
</filter>
</defs>
</svg>
